<svg version="1.1" xmlns="http://www.w3.org/2000/svg" xmlns:xlink="http://www.w3.org/1999/xlink" width="178.64234" height="204.55216" viewBox="0,0,178.64234,204.55216"><g transform="translate(-150.67758,-77.64439)"><g data-paper-data="{&quot;isPaintingLayer&quot;:true}" fill-rule="nonzero" stroke-linejoin="miter" stroke-miterlimit="10" stroke-dasharray="" stroke-dashoffset="0" style="mix-blend-mode: normal"><path d="M285.16044,175.93762c0,0 -0.63458,5.88807 -2.69504,8.85513c-2.06046,2.96706 -3.84523,3.64199 -6.9301,5.00508c-3.08487,1.36309 -9.62515,2.31004 -9.62515,2.31004h-53.5158c0,0 -6.09171,-0.74875 -9.62515,-2.31004c-3.53343,-1.56128 -5.01797,-2.25161 -6.9301,-5.00508c-1.91214,-2.75347 -2.69504,-8.85513 -2.69504,-8.85513l3.09633,-50.43576c0,0 -3.88903,-5.77012 -4.62006,-10.01016c-0.40099,-2.32577 0.18741,-9.91801 0.77001,-12.32019c2.44993,-5.70001 6.29915,-8.96433 10.39515,-11.16517c5.2733,-2.83342 9.66065,-3.42539 15.76897,-2.69505c4.56104,0.54534 16.96395,5.3738 20.38902,5.3738c2.38213,0 14.77147,-4.675 20.8066,-5.3738c8.70393,-1.00783 10.32123,-0.23209 15.76896,2.69505c5.44774,2.92714 7.8145,5.7369 10.39515,11.16517c2.58065,5.42827 1.60301,7.48876 0.77001,12.32019c-0.833,4.83143 -4.98879,10.01016 -4.98879,10.01016z" data-paper-data="{&quot;origPos&quot;:null}" fill="none" stroke="#4d4d4d" stroke-width="23.5" stroke-linecap="round"/><path d="M286.61807,173.94189c0,0 -0.62757,5.82306 -2.66529,8.75737c-2.03772,2.93431 -3.80279,3.60178 -6.8536,4.94982c-3.05081,1.34804 -9.51887,2.28454 -9.51887,2.28454h-52.925c0,0 -6.02446,-0.74049 -9.51888,-2.28454c-3.49444,-1.54405 -4.96257,-2.22674 -6.85359,-4.94982c-1.89102,-2.72307 -2.66528,-10.2804 -2.66528,-10.2804l3.4268,-48.35592c0,0 -4.60761,-5.7064 -5.33058,-9.89964c-0.72298,-4.19324 -1.29184,-7.86506 0.76151,-12.18417c2.05335,-4.31911 5.06531,-8.23977 10.28039,-11.0419c5.21508,-2.80213 9.95085,-3.38757 15.99173,-2.66528c6.04088,0.72229 11.22241,4.94981 19.41852,4.94981c8.1961,0 12.71447,-3.95312 21.3223,-4.94981c8.60783,-0.99669 7.93885,-0.22955 13.32644,2.66528c5.38759,2.89483 7.72822,5.67356 10.28039,11.0419c2.55217,5.36835 1.58532,7.40608 0.76151,12.18417c-0.82381,4.7781 -2.66528,9.89964 -2.66528,9.89964z" data-paper-data="{&quot;index&quot;:null}" fill="#ffeab0" stroke="#ffeab0" stroke-width="5" stroke-linecap="round"/><path d="M285.47194,176.12429c0,0 -0.64688,6.00217 -2.74727,9.02672c-2.10039,3.02455 -3.91974,3.71256 -7.06439,5.10206c-3.14465,1.3895 -9.81165,2.3548 -9.81165,2.3548h-54.55277c0,0 -6.20975,-0.76326 -9.81166,-2.3548c-3.6019,-1.59153 -5.1152,-2.29524 -7.06439,-5.10206c-1.94918,-2.80682 -2.74726,-9.02672 -2.74726,-9.02672l3.5322,-51.41305c0,0 -3.96439,-5.88192 -4.7096,-10.20412c-0.40876,-2.37084 0.19103,-10.11019 0.78493,-12.55891c2.4974,-5.81046 6.79708,-9.13803 10.97245,-11.38152c5.37548,-2.88832 9.0961,-3.49175 15.32278,-2.74726c6.22668,0.7445 13.46352,5.10206 21.9117,5.10206c8.44818,0 11.20959,-4.0747 20.08216,-5.10206c8.87259,-1.02736 9.76949,-0.23659 15.32279,2.74726c5.55329,2.98386 7.96591,5.84807 10.59657,11.38152c2.63067,5.53346 1.63407,7.63387 0.78494,12.55892c-0.84914,4.92505 -4.33373,10.20412 -4.33373,10.20412z" fill="none" stroke="#dfba53" stroke-width="10" stroke-linecap="round"/><g stroke="#4d4d4d"><path d="M278.28472,281.41873l2.34658,-13.29726l13.68835,-1.17329l3.12877,14.86164z" data-paper-data="{&quot;origPos&quot;:null,&quot;index&quot;:null}" fill="#4d4d4d" stroke-width="0.5" stroke-linecap="butt"/><path d="M182.20551,281.94018l3.12877,-14.86164l13.68836,1.17329l2.34658,13.29726z" data-paper-data="{&quot;origPos&quot;:null}" fill="#4d4d4d" stroke-width="0.5" stroke-linecap="butt"/><path d="M188.98449,272.52779c0,0 -10.61115,0.10435 -17.07785,-1.62957c-6.4667,-1.73392 -8.59381,-2.50097 -12.58024,-6.32271c-3.98643,-3.82173 -6.14521,-11.6291 -6.14521,-11.6291l0.61777,-58.17348c0,0 3.97657,-9.64571 7.67756,-15.1407c3.70099,-5.49499 5.12882,-7.90061 10.01401,-11.12668c4.88519,-3.22607 11.47299,-6.20452 19.47169,-8.34501c7.99869,-2.14049 20.02803,-2.22534 20.02803,-2.22534l60.10068,0.24628c0,0 12.43105,0.19234 20.02802,2.22533c7.59697,2.03299 12.5616,3.78175 19.47169,8.34501c6.91009,4.56327 6.84178,6.14892 10.01401,11.12668c3.17222,4.97775 6.21417,14.33809 6.21417,14.33809l-0.16854,60.29421c0,0 -2.80546,7.53725 -6.60149,10.58617c-3.79602,3.04892 -8.00085,4.10906 -13.55799,5.60571c-5.55714,1.49665 -14.27499,1.8903 -14.27499,1.8903z" data-paper-data="{&quot;origPos&quot;:null}" fill="#7bd657" stroke-width="5" stroke-linecap="round"/></g></g></g></svg>